UEFA.Champions.League.2013.05.01.Semi.Finals.2nd.leg.Barcelona.vs.bayern - fairplay

Source:                                  : Sky Sports 1 HD 
Duration                                 : 1h 43mn
Language                                 : English
Format                                   : Matroska
Format version                           : Version 4 / Version 2
File size                                : 3.40 GiB
Duration                                 : 1h 43mn
Overall bit rate                         : 4 717 Kbps

Video
Format                                   : AVC
Format                                   : Advanced Video Codec
Bit rate                                 : 4 239 Kbps
Width                                    : 1 280 pixels
Height                                   : 720 pixels
Display aspect ratio                     : 16:9
Frame rate                               : 25.000 fps
Bit depth                                : 8 bits
Stream size                              : 3.05 GiB (90%)

Audio
Format                                   : AC-3
Duration                                 : 1h 43mn
Bit rate mode                            : Constant
Bit rate                                 : 384 Kbps
Channel(s)                               : 2 channels
Channel positions                        : Front: L R
Sampling rate                            : 48.0 KHz
Bit depth                                : 16 bits
Compression mode                         : Lossy
Stream size                              : 283 MiB (8%)

